<?xml version="1.0" encoding="UTF-8" standalone="no"?>
<svg
   xmlns:dc="http://purl.org/dc/elements/1.1/"
   xmlns:cc="http://creativecommons.org/ns#"
   xmlns:rdf="http://www.w3.org/1999/02/22-rdf-syntax-ns#"
   xmlns:svg="http://www.w3.org/2000/svg"
   xmlns="http://www.w3.org/2000/svg"
   xmlns:sodipodi="http://sodipodi.sourceforge.net/DTD/sodipodi-0.dtd"
   xmlns:inkscape="http://www.inkscape.org/namespaces/inkscape"
   width="712"
   height="120"
   viewBox="0 0 711.99998 120"
   version="1.1"
   id="SVGRoot"
   sodipodi:docname="Logo_2.svg"
   inkscape:version="1.0.1 (c497b03c, 2020-09-10)">
  <sodipodi:namedview
     pagecolor="#ffffff"
     bordercolor="#666666"
     borderopacity="1"
     objecttolerance="10"
     gridtolerance="10"
     guidetolerance="10"
     inkscape:pageopacity="0"
     inkscape:pageshadow="2"
     inkscape:window-width="1747"
     inkscape:window-height="876"
     id="namedview31"
     showgrid="false"
     inkscape:zoom="1.4733146"
     inkscape:cx="356"
     inkscape:cy="60"
     inkscape:window-x="0"
     inkscape:window-y="23"
     inkscape:window-maximized="0"
     inkscape:current-layer="SVGRoot" />
  <defs
     id="defs18">
    <rect
       x="213"
       y="69"
       width="509"
       height="48"
       id="rect26" />
    <rect
       x="210"
       y="7"
       width="526"
       height="106"
       id="rect91" />
    <rect
       x="210"
       y="7"
       width="526"
       height="106"
       id="rect91-9" />
    <rect
       x="210"
       y="7"
       width="526"
       height="106"
       id="rect862" />
  </defs>
  <metadata
     id="metadata21">
    <rdf:RDF>
      <cc:Work
         rdf:about="">
        <dc:format>image/svg+xml</dc:format>
        <dc:type
           rdf:resource="http://purl.org/dc/dcmitype/StillImage" />
        <dc:title />
      </cc:Work>
    </rdf:RDF>
  </metadata>
  <g
     id="layer1">
    <path
       class="cls-4"
       d="m 124.91201,34.281623 h 5.99205 c 3.07398,0.14638 5.43516,2.790771 5.43516,5.867939 v 74.106608 a 5.7279236,5.7279236 0 0 0 5.72792,5.72792 h 22.85124 a 5.7279236,5.7279236 0 0 0 5.72792,-5.72792 V 85.689737 A 39.802705,39.802705 0 0 0 163.47367,62.838504 39.802705,39.802705 0 0 0 170.6463,39.987271 40.308671,40.308671 0 0 0 170.22944,34.221161 39.89817,39.89817 0 0 0 136.40923,0.41686507 40.318218,40.318218 0 0 0 130.62403,7.1630845e-8 H 119.2"
       id="path49"
       style="fill:#d5222c;stroke-width:0.318218" />
    <path
       class="cls-5"
       d="m 79.632856,79.993636 a 5.7279236,5.7279236 0 0 0 5.988864,5.705648 c 3.07399,-0.143198 5.43516,-2.790772 5.43516,-5.86794 V 5.727924 A 5.7279236,5.7279236 0 0 1 96.78481,0 h 22.85123 a 5.7279236,5.7279236 0 0 1 5.72792,5.727924 v 74.265712 a 40.311854,40.311854 0 0 1 -0.40732,5.727923 39.907717,39.907717 0 0 1 -33.86475,33.848851 40.206842,40.206842 0 0 1 -11.455852,0 A 39.758154,39.758154 0 0 1 62.5,112.80827 39.942721,39.942721 0 0 0 79.632856,79.993636 Z"
       id="path51"
       style="fill:#ffcb05;stroke-width:0.318218" />
    <path
       class="cls-6"
       d="M 74.281632,0.031822 H 51.430399 a 5.7279236,5.7279236 0 0 0 -5.727924,5.727923 v 74.233891 a 5.7279236,5.7279236 0 0 1 -5.979315,5.705648 c -3.073986,-0.143198 -5.435163,-2.790772 -5.435163,-5.86794 V 5.727924 A 5.7279236,5.7279236 0 0 0 28.560073,0 H 5.7279327 A 5.7279236,5.7279236 0 0 0 8.7337498e-6,5.727924 v 74.265712 0 A 39.942721,39.942721 0 0 0 17.136047,112.81146 v 0 a 39.777247,39.777247 0 0 0 17.139221,6.76213 39.977725,39.977725 0 0 0 45.718377,-39.579954 V 5.727924 A 5.7279236,5.7279236 0 0 0 74.281632,0.031822 Z"
       id="path53"
       style="fill:#0074bc;fill-rule:evenodd;stroke-width:0.318218" />
    <g
       aria-label="Wandgestaltung Reinl"
       transform="matrix(1.0560848,0,0,1.0560848,-40.473416,7.044147)"
       id="text89"
       style="font-style:normal;font-variant:normal;font-weight:600;font-stretch:normal;font-size:50.6667px;line-height:1.25;font-family:'Fira Sans';-inkscape-font-specification:'Fira Sans Semi-Bold';white-space:pre;shape-inside:url(#rect91);fill:#454545;fill-opacity:1;stroke:none">
      <path
         d="m 251.95203,17.749785 -6.13067,35.061355 h -9.67734 l -4.86401,-27.410684 -5.11733,27.410684 h -9.42401 l -6.08,-35.061355 h 7.448 l 4.00267,29.285351 5.32,-29.285351 h 7.85334 l 5.11734,29.285351 4.50934,-29.285351 z"
         style="font-style:normal;font-variant:normal;font-weight:600;font-stretch:normal;font-size:50.6667px;font-family:'Fira Sans';-inkscape-font-specification:'Fira Sans Semi-Bold';fill:#454545;fill-opacity:1"
         id="path33" />
      <path
         d="m 275.23337,45.363135 q 0,1.570668 0.456,2.330668 0.456,0.709334 1.52,1.064001 l -1.52,4.76267 q -2.38133,-0.202667 -3.90133,-1.114668 -1.46934,-0.912 -2.28,-2.837335 -2.63467,4.053336 -8.05601,4.053336 -4.00267,0 -6.384,-2.280001 -2.33067,-2.330669 -2.33067,-6.029338 0,-4.408002 3.192,-6.73867 3.192,-2.330669 9.17067,-2.330669 h 3.09067 v -1.317334 q 0,-2.482668 -1.11467,-3.445335 -1.11466,-0.962667 -3.69866,-0.962667 -2.83734,0 -7.09334,1.418667 l -1.62134,-4.813336 q 5.01601,-1.976002 9.93068,-1.976002 5.472,0 8.056,2.381335 2.584,2.330668 2.584,6.992005 z m -11.80534,3.090669 q 3.04,0 4.76267,-2.989335 v -5.117337 h -2.38133 q -5.82667,0 -5.82667,4.357336 0,1.773335 0.86133,2.786669 0.912,0.962667 2.584,0.962667 z"
         style="font-style:normal;font-variant:normal;font-weight:600;font-stretch:normal;font-size:50.6667px;font-family:'Fira Sans';-inkscape-font-specification:'Fira Sans Semi-Bold';fill:#454545;fill-opacity:1"
         id="path35" />
      <path
         d="m 297.41906,25.147122 q 3.54667,0 5.52267,2.178669 1.976,2.128001 1.976,5.928003 V 52.81114 h -7.19467 V 34.469795 q 0,-2.178668 -0.76,-3.040002 -0.70934,-0.912 -2.17867,-0.912 -1.52,0 -2.78667,0.962667 -1.216,0.912 -2.38133,2.786668 V 52.81114 h -7.19468 V 25.95779 h 6.23201 l 0.55733,3.394668 q 1.672,-2.077334 3.648,-3.141335 2.02667,-1.064001 4.56001,-1.064001 z"
         style="font-style:normal;font-variant:normal;font-weight:600;font-stretch:normal;font-size:50.6667px;font-family:'Fira Sans';-inkscape-font-specification:'Fira Sans Semi-Bold';fill:#454545;fill-opacity:1"
         id="path37" />
      <path
         d="M 334.96941,15.267116 V 52.81114 h -6.33334 l -0.40533,-3.293336 q -2.83734,4.104003 -7.70134,4.104003 -4.96534,0 -7.60001,-3.800002 -2.584,-3.850669 -2.584,-10.43734 0,-4.15467 1.31734,-7.346672 1.368,-3.242668 3.85067,-5.066669 2.48266,-1.824002 5.72533,-1.824002 3.74934,0 6.53601,2.685336 V 14.456449 Z M 322.6574,48.251137 q 1.57067,0 2.78667,-0.76 1.216,-0.810668 2.33067,-2.482669 V 33.000461 q -1.064,-1.266668 -2.17867,-1.874668 -1.064,-0.658667 -2.48267,-0.658667 -2.48267,0 -3.90133,2.178668 -1.36801,2.178668 -1.36801,6.738671 0,4.813336 1.21601,6.840004 1.26666,2.026668 3.59733,2.026668 z"
         style="font-style:normal;font-variant:normal;font-weight:600;font-stretch:normal;font-size:50.6667px;font-family:'Fira Sans';-inkscape-font-specification:'Fira Sans Semi-Bold';fill:#454545;fill-opacity:1"
         id="path39" />
      <path
         d="m 366.10964,27.427124 q -2.63467,1.013334 -7.75201,1.013334 2.53334,1.114667 3.74934,2.786668 1.216,1.621335 1.216,4.104003 0,2.584002 -1.368,4.661336 -1.31734,2.026668 -3.85067,3.192002 -2.48267,1.165334 -5.82667,1.165334 -1.77334,0 -3.14134,-0.354667 -1.01333,0.658667 -1.01333,1.773335 0,0.810667 0.608,1.317334 0.65866,0.456 2.48267,0.456 h 4.104 q 2.98933,0 5.21867,1.013334 2.28,0.962667 3.496,2.736002 1.26667,1.722668 1.26667,3.952002 0,4.104003 -3.54667,6.384004 -3.496,2.330669 -10.13334,2.330669 -4.76267,0 -7.54934,-1.013334 -2.736,-0.962668 -3.85067,-2.837336 -1.11467,-1.874667 -1.11467,-4.712003 h 6.43468 q 0,1.317335 0.50666,2.077335 0.50667,0.810667 1.824,1.165334 1.368,0.405334 3.90134,0.405334 3.496,0 4.864,-0.861334 1.41867,-0.861334 1.41867,-2.432002 0,-1.418667 -1.064,-2.178668 -1.064,-0.76 -3.14134,-0.76 h -3.952 q -4.00267,0 -5.97867,-1.469334 -1.976,-1.520001 -1.976,-3.800003 0,-1.418667 0.81067,-2.736002 0.86133,-1.368 2.33067,-2.280001 -2.48267,-1.368001 -3.64801,-3.192002 -1.11466,-1.874668 -1.11466,-4.458669 0,-2.938669 1.41866,-5.117337 1.46934,-2.229335 4.05334,-3.394669 2.63467,-1.216001 5.97867,-1.216001 4.15467,0.101334 6.84,-0.709333 2.68534,-0.810667 5.72534,-2.533335 z m -14.18668,2.533335 q -2.02667,0 -3.24267,1.317334 -1.16533,1.266667 -1.16533,3.496002 0,2.280002 1.16533,3.597336 1.216,1.317334 3.29334,1.317334 2.17866,0 3.29333,-1.266668 1.11467,-1.266667 1.11467,-3.749335 0,-4.712003 -4.45867,-4.712003 z"
         style="font-style:normal;font-variant:normal;font-weight:600;font-stretch:normal;font-size:50.6667px;font-family:'Fira Sans';-inkscape-font-specification:'Fira Sans Semi-Bold';fill:#454545;fill-opacity:1"
         id="path41" />
      <path
         d="m 391.41211,38.776464 q 0,0.506667 -0.152,2.786669 h -16.77067 q 0.35466,3.648002 1.976,5.168003 1.62133,1.520001 4.408,1.520001 1.72267,0 3.24267,-0.557334 1.52,-0.557333 3.29333,-1.773334 l 2.98934,4.053336 q -4.50934,3.648002 -10.18401,3.648002 -6.33333,0 -9.728,-3.800002 -3.39467,-3.800003 -3.39467,-10.28534 0,-4.104003 1.41867,-7.346671 1.46933,-3.293336 4.20533,-5.168004 2.78667,-1.874668 6.58667,-1.874668 5.72534,0 8.91734,3.597336 3.192,3.597336 3.192,10.032006 z m -7.144,-2.026668 q 0,-6.688004 -4.81334,-6.688004 -2.22933,0 -3.496,1.672001 -1.216,1.621335 -1.46933,5.320004 h 9.77867 z"
         style="font-style:normal;font-variant:normal;font-weight:600;font-stretch:normal;font-size:50.6667px;font-family:'Fira Sans';-inkscape-font-specification:'Fira Sans Semi-Bold';fill:#454545;fill-opacity:1"
         id="path43" />
      <path
         d="m 405.53704,25.147122 q 5.67467,0 9.728,3.242669 l -2.736,4.104003 q -3.39467,-2.128002 -6.688,-2.128002 -1.77334,0 -2.73601,0.658668 -0.96266,0.658667 -0.96266,1.773334 0,0.810667 0.40533,1.368001 0.456,0.557334 1.62134,1.064 1.216,0.506667 3.59733,1.216001 4.256,1.165334 6.33334,3.141336 2.07733,1.925334 2.07733,5.320003 0,2.685335 -1.57066,4.661336 -1.52001,1.976001 -4.15467,3.040002 -2.63467,1.013334 -5.87734,1.013334 -3.39467,0 -6.18134,-1.013334 -2.78667,-1.064001 -4.76267,-2.888002 l 3.54667,-3.952002 q 3.39467,2.634668 7.19467,2.634668 2.02667,0 3.192,-0.76 1.21601,-0.810668 1.21601,-2.178668 0,-1.064001 -0.45601,-1.672001 -0.456,-0.608001 -1.672,-1.114668 -1.216,-0.557334 -3.8,-1.266667 -4.05333,-1.114668 -6.02934,-3.141336 -1.92533,-2.077334 -1.92533,-5.117336 0,-2.280002 1.31733,-4.104003 1.31734,-1.824001 3.69867,-2.837335 2.432,-1.064001 5.62401,-1.064001 z"
         style="font-style:normal;font-variant:normal;font-weight:600;font-stretch:normal;font-size:50.6667px;font-family:'Fira Sans';-inkscape-font-specification:'Fira Sans Semi-Bold';fill:#454545;fill-opacity:1"
         id="path45" />
      <path
         d="m 436.92585,51.544472 q -1.46933,1.013334 -3.344,1.520001 -1.824,0.557334 -3.648,0.557334 -4.15467,-0.05067 -6.28267,-2.381335 -2.128,-2.330668 -2.128,-6.840004 V 31.02446 h -4.00267 v -5.06667 h 4.00267 v -5.877337 l 7.19467,-0.861334 v 6.738671 h 6.18133 l -0.70933,5.06667 h -5.472 v 13.224008 q 0,1.925334 0.65866,2.786668 0.65867,0.861334 2.02667,0.861334 1.368,0 3.04,-0.912 z"
         style="font-style:normal;font-variant:normal;font-weight:600;font-stretch:normal;font-size:50.6667px;font-family:'Fira Sans';-inkscape-font-specification:'Fira Sans Semi-Bold';fill:#454545;fill-opacity:1"
         id="path47" />
      <path
         d="m 460.08765,45.363135 q 0,1.570668 0.456,2.330668 0.456,0.709334 1.52,1.064001 l -1.52,4.76267 q -2.38134,-0.202667 -3.90134,-1.114668 -1.46933,-0.912 -2.28,-2.837335 -2.63467,4.053336 -8.056,4.053336 -4.00267,0 -6.38401,-2.280001 -2.33067,-2.330669 -2.33067,-6.029338 0,-4.408002 3.19201,-6.73867 3.192,-2.330669 9.17067,-2.330669 h 3.09067 v -1.317334 q 0,-2.482668 -1.11467,-3.445335 -1.11467,-0.962667 -3.69867,-0.962667 -2.83734,0 -7.09334,1.418667 l -1.62133,-4.813336 q 5.016,-1.976002 9.93067,-1.976002 5.472,0 8.05601,2.381335 2.584,2.330668 2.584,6.992005 z m -11.80534,3.090669 q 3.04,0 4.76267,-2.989335 v -5.117337 h -2.38134 q -5.82667,0 -5.82667,4.357336 0,1.773335 0.86133,2.786669 0.91201,0.962667 2.58401,0.962667 z"
         style="font-style:normal;font-variant:normal;font-weight:600;font-stretch:normal;font-size:50.6667px;font-family:'Fira Sans';-inkscape-font-specification:'Fira Sans Semi-Bold';fill:#454545;fill-opacity:1"
         id="path50" />
      <path
         d="m 473.4692,53.621807 q -3.29333,0 -5.11734,-1.874668 -1.824,-1.925334 -1.824,-5.421337 V 15.267116 l 7.19467,-0.810667 v 31.666687 q 0,1.773334 1.46934,1.773334 0.81067,0 1.41867,-0.304 l 1.46933,5.117336 q -2.07733,0.912001 -4.61067,0.912001 z"
         style="font-style:normal;font-variant:normal;font-weight:600;font-stretch:normal;font-size:50.6667px;font-family:'Fira Sans';-inkscape-font-specification:'Fira Sans Semi-Bold';fill:#454545;fill-opacity:1"
         id="path52" />
      <path
         d="m 497.88423,51.544472 q -1.46934,1.013334 -3.34401,1.520001 -1.824,0.557334 -3.648,0.557334 -4.15467,-0.05067 -6.28267,-2.381335 -2.128,-2.330668 -2.128,-6.840004 V 31.02446 h -4.00267 v -5.06667 h 4.00267 v -5.877337 l 7.19467,-0.861334 v 6.738671 h 6.18134 l -0.70933,5.06667 h -5.47201 v 13.224008 q 0,1.925334 0.65867,2.786668 0.65867,0.861334 2.02667,0.861334 1.368,0 3.04,-0.912 z"
         style="font-style:normal;font-variant:normal;font-weight:600;font-stretch:normal;font-size:50.6667px;font-family:'Fira Sans';-inkscape-font-specification:'Fira Sans Semi-Bold';fill:#454545;fill-opacity:1"
         id="path54" />
      <path
         d="m 523.10911,52.81114 h -6.23201 l -0.35467,-3.597336 q -1.41866,2.229335 -3.44533,3.344002 -2.02667,1.064001 -4.712,1.064001 -3.64801,0 -5.57334,-2.178668 -1.92534,-2.229335 -1.92534,-6.181337 V 25.95779 h 7.19468 v 18.392011 q 0,2.128002 0.70933,3.040002 0.70933,0.861334 2.22933,0.861334 2.88801,0 4.91467,-3.496002 V 25.95779 h 7.19468 z"
         style="font-style:normal;font-variant:normal;font-weight:600;font-stretch:normal;font-size:50.6667px;font-family:'Fira Sans';-inkscape-font-specification:'Fira Sans Semi-Bold';fill:#454545;fill-opacity:1"
         id="path56" />
      <path
         d="m 545.21088,25.147122 q 3.54667,0 5.52267,2.178669 1.976,2.128001 1.976,5.928003 V 52.81114 h -7.19467 V 34.469795 q 0,-2.178668 -0.76,-3.040002 -0.70933,-0.912 -2.17867,-0.912 -1.52,0 -2.78666,0.962667 -1.21601,0.912 -2.38134,2.786668 V 52.81114 h -7.19467 V 25.95779 h 6.232 l 0.55734,3.394668 q 1.672,-2.077334 3.648,-3.141335 2.02667,-1.064001 4.56,-1.064001 z"
         style="font-style:normal;font-variant:normal;font-weight:600;font-stretch:normal;font-size:50.6667px;font-family:'Fira Sans';-inkscape-font-specification:'Fira Sans Semi-Bold';fill:#454545;fill-opacity:1"
         id="path58" />
      <path
         d="m 583.52124,27.427124 q -2.63467,1.013334 -7.752,1.013334 2.53333,1.114667 3.74933,2.786668 1.216,1.621335 1.216,4.104003 0,2.584002 -1.368,4.661336 -1.31733,2.026668 -3.85067,3.192002 -2.48267,1.165334 -5.82667,1.165334 -1.77333,0 -3.14133,-0.354667 -1.01334,0.658667 -1.01334,1.773335 0,0.810667 0.608,1.317334 0.65867,0.456 2.48267,0.456 h 4.104 q 2.98934,0 5.21867,1.013334 2.28001,0.962667 3.49601,2.736002 1.26666,1.722668 1.26666,3.952002 0,4.104003 -3.54666,6.384004 -3.49601,2.330669 -10.13334,2.330669 -4.76267,0 -7.54934,-1.013334 -2.736,-0.962668 -3.85067,-2.837336 -1.11467,-1.874667 -1.11467,-4.712003 h 6.43467 q 0,1.317335 0.50667,2.077335 0.50667,0.810667 1.824,1.165334 1.368,0.405334 3.90134,0.405334 3.496,0 4.864,-0.861334 1.41867,-0.861334 1.41867,-2.432002 0,-1.418667 -1.064,-2.178668 -1.06401,-0.76 -3.14134,-0.76 h -3.952 q -4.00267,0 -5.97867,-1.469334 -1.976,-1.520001 -1.976,-3.800003 0,-1.418667 0.81066,-2.736002 0.86134,-1.368 2.33067,-2.280001 -2.48267,-1.368001 -3.648,-3.192002 -1.11467,-1.874668 -1.11467,-4.458669 0,-2.938669 1.41867,-5.117337 1.46933,-2.229335 4.05334,-3.394669 2.63466,-1.216001 5.97867,-1.216001 4.15466,0.101334 6.84,-0.709333 2.68533,-0.810667 5.72534,-2.533335 z m -14.18667,2.533335 q -2.02667,0 -3.24267,1.317334 -1.16534,1.266667 -1.16534,3.496002 0,2.280002 1.16534,3.597336 1.216,1.317334 3.29333,1.317334 2.17867,0 3.29334,-1.266668 1.11466,-1.266667 1.11466,-3.749335 0,-4.712003 -4.45866,-4.712003 z"
         style="font-style:normal;font-variant:normal;font-weight:600;font-stretch:normal;font-size:50.6667px;font-family:'Fira Sans';-inkscape-font-specification:'Fira Sans Semi-Bold';fill:#454545;fill-opacity:1"
         id="path60" />
      <path
         d="m 610.88442,39.080465 h -3.8 V 52.81114 h -7.44801 V 17.749785 h 10.94401 q 7.04267,0 10.58934,2.634668 3.54667,2.584001 3.54667,7.853338 0,3.445336 -1.72267,5.67467 -1.672,2.229335 -5.21867,3.800003 l 9.06934,15.098676 h -8.46134 z m -3.8,-5.269337 h 3.90133 q 2.98934,0 4.50934,-1.317334 1.52,-1.368001 1.52,-4.256003 0,-2.685335 -1.62133,-3.901336 -1.57067,-1.266667 -4.96534,-1.266667 h -3.344 z"
         style="font-style:normal;font-variant:normal;font-weight:600;font-stretch:normal;font-size:50.6667px;font-family:'Fira Sans';-inkscape-font-specification:'Fira Sans Semi-Bold';fill:#454545;fill-opacity:1"
         id="path62" />
      <path
         d="m 652.46434,38.776464 q 0,0.506667 -0.152,2.786669 h -16.77067 q 0.35466,3.648002 1.976,5.168003 1.62133,1.520001 4.408,1.520001 1.72267,0 3.24267,-0.557334 1.52,-0.557333 3.29333,-1.773334 l 2.98934,4.053336 q -4.50934,3.648002 -10.18401,3.648002 -6.33333,0 -9.728,-3.800002 -3.39467,-3.800003 -3.39467,-10.28534 0,-4.104003 1.41867,-7.346671 1.46933,-3.293336 4.20533,-5.168004 2.78667,-1.874668 6.58667,-1.874668 5.72534,0 8.91734,3.597336 3.192,3.597336 3.192,10.032006 z m -7.144,-2.026668 q 0,-6.688004 -4.81334,-6.688004 -2.22933,0 -3.496,1.672001 -1.216,1.621335 -1.46933,5.320004 h 9.77867 z"
         style="font-style:normal;font-variant:normal;font-weight:600;font-stretch:normal;font-size:50.6667px;font-family:'Fira Sans';-inkscape-font-specification:'Fira Sans Semi-Bold';fill:#454545;fill-opacity:1"
         id="path64" />
      <path
         d="m 664.86661,25.95779 v 26.85335 h -7.19467 V 25.95779 Z m -3.648,-13.832009 q 1.92534,0 3.14134,1.216001 1.26667,1.165334 1.26667,2.989335 0,1.824001 -1.26667,3.040002 -1.216,1.165334 -3.14134,1.165334 -1.92533,0 -3.14133,-1.165334 -1.216,-1.216001 -1.216,-3.040002 0,-1.824001 1.216,-2.989335 1.216,-1.216001 3.14133,-1.216001 z"
         style="font-style:normal;font-variant:normal;font-weight:600;font-stretch:normal;font-size:50.6667px;font-family:'Fira Sans';-inkscape-font-specification:'Fira Sans Semi-Bold';fill:#454545;fill-opacity:1"
         id="path66" />
      <path
         d="m 686.91929,25.147122 q 3.54667,0 5.52267,2.178669 1.976,2.128001 1.976,5.928003 V 52.81114 h -7.19467 V 34.469795 q 0,-2.178668 -0.76,-3.040002 -0.70934,-0.912 -2.17867,-0.912 -1.52,0 -2.78667,0.962667 -1.216,0.912 -2.38134,2.786668 V 52.81114 h -7.19467 V 25.95779 h 6.23201 l 0.55733,3.394668 q 1.672,-2.077334 3.648,-3.141335 2.02667,-1.064001 4.56001,-1.064001 z"
         style="font-style:normal;font-variant:normal;font-weight:600;font-stretch:normal;font-size:50.6667px;font-family:'Fira Sans';-inkscape-font-specification:'Fira Sans Semi-Bold';fill:#454545;fill-opacity:1"
         id="path68" />
      <path
         d="m 707.90163,53.621807 q -3.29333,0 -5.11733,-1.874668 -1.824,-1.925334 -1.824,-5.421337 V 15.267116 l 7.19467,-0.810667 v 31.666687 q 0,1.773334 1.46933,1.773334 0.81067,0 1.41867,-0.304 l 1.46933,5.117336 q -2.07733,0.912001 -4.61067,0.912001 z"
         style="font-style:normal;font-variant:normal;font-weight:600;font-stretch:normal;font-size:50.6667px;font-family:'Fira Sans';-inkscape-font-specification:'Fira Sans Semi-Bold';fill:#454545;fill-opacity:1"
         id="path70" />
    </g>
    <g
       aria-label="Werte schaffen - Werte erhalten"
       transform="matrix(1.2537144,0,0,1.2537144,-81.905286,65.987635)"
       id="text89-5"
       style="font-style:normal;font-variant:normal;font-weight:500;font-stretch:normal;font-size:29.3369px;line-height:1.25;font-family:'Fira Sans';-inkscape-font-specification:'Fira Sans Medium';white-space:pre;shape-inside:url(#rect91-9);fill:#454545;fill-opacity:1;stroke:none">
      <path
         d="m 234.0856,13.253649 -3.72579,20.271799 h -5.04595 l -3.08037,-16.164633 -3.16839,16.164633 h -4.89926 l -3.66711,-20.271799 h 3.84313 l 2.58165,17.191424 3.31507,-17.191424 h 4.10716 l 3.2564,17.191424 2.81634,-17.191424 z"
         style="font-style:normal;font-variant:normal;font-weight:500;font-stretch:normal;font-size:29.3369px;font-family:'Fira Sans';-inkscape-font-specification:'Fira Sans Medium'"
         id="path73" />
      <path
         d="m 249.28578,25.399126 q 0,0.293369 -0.088,1.525519 h -9.73985 q 0.17602,2.258941 1.17347,3.227059 0.99746,0.968118 2.64032,0.968118 1.02679,0 1.93624,-0.322706 0.90944,-0.352043 1.93623,-1.056128 l 1.55486,2.141593 q -2.58165,2.08292 -5.75003,2.08292 -3.54977,0 -5.486,-2.17093 -1.9069,-2.170931 -1.9069,-5.926054 0,-2.376289 0.82143,-4.253851 0.82143,-1.906899 2.37629,-2.963027 1.55486,-1.085465 3.69645,-1.085465 3.25639,0 5.04595,2.08292 1.78955,2.053583 1.78955,5.750032 z m -3.72579,-1.085465 q 0,-4.077829 -3.0217,-4.077829 -1.37883,0 -2.17093,1.026791 -0.76276,0.997455 -0.90944,3.227059 h 6.10207 z"
         style="font-style:normal;font-variant:normal;font-weight:500;font-stretch:normal;font-size:29.3369px;font-family:'Fira Sans';-inkscape-font-specification:'Fira Sans Medium'"
         id="path75" />
      <path
         d="m 260.31141,17.595511 q 0.85077,0 1.55486,0.205358 l -0.64542,3.637776 q -0.70408,-0.176022 -1.37883,-0.176022 -1.37883,0 -2.17093,0.997455 -0.7921,0.968118 -1.26149,2.992364 v 8.273006 h -3.75512 V 18.006227 h 3.2564 l 0.35204,3.051038 q 0.5574,-1.672203 1.61353,-2.55231 1.05613,-0.909444 2.43496,-0.909444 z"
         style="font-style:normal;font-variant:normal;font-weight:500;font-stretch:normal;font-size:29.3369px;font-family:'Fira Sans';-inkscape-font-specification:'Fira Sans Medium'"
         id="path77" />
      <path
         d="m 273.11788,32.792025 q -0.82143,0.586738 -1.84822,0.880107 -0.99746,0.293369 -2.05359,0.293369 -2.28827,-0.02934 -3.49109,-1.290823 -1.17347,-1.290824 -1.17347,-3.784461 v -8.184995 h -2.43497 v -2.698995 h 2.43497 V 14.57381 l 3.75512,-0.440054 v 3.872471 h 3.60844 l -0.38138,2.698995 h -3.22706 v 8.096985 q 0,1.144139 0.38138,1.642866 0.41072,0.498727 1.26149,0.498727 0.85077,0 1.84822,-0.557401 z"
         style="font-style:normal;font-variant:normal;font-weight:500;font-stretch:normal;font-size:29.3369px;font-family:'Fira Sans';-inkscape-font-specification:'Fira Sans Medium'"
         id="path79" />
      <path
         d="m 287.44667,25.399126 q 0,0.293369 -0.088,1.525519 h -9.73985 q 0.17603,2.258941 1.17348,3.227059 0.99745,0.968118 2.64032,0.968118 1.02679,0 1.93624,-0.322706 0.90944,-0.352043 1.93623,-1.056128 l 1.55486,2.141593 q -2.58165,2.08292 -5.75004,2.08292 -3.54976,0 -5.486,-2.17093 -1.90689,-2.170931 -1.90689,-5.926054 0,-2.376289 0.82143,-4.253851 0.82143,-1.906899 2.37629,-2.963027 1.55485,-1.085465 3.69645,-1.085465 3.25639,0 5.04594,2.08292 1.78956,2.053583 1.78956,5.750032 z m -3.72579,-1.085465 q 0,-4.077829 -3.0217,-4.077829 -1.37884,0 -2.17093,1.026791 -0.76276,0.997455 -0.90945,3.227059 h 6.10208 z"
         style="font-style:normal;font-variant:normal;font-weight:500;font-stretch:normal;font-size:29.3369px;font-family:'Fira Sans';-inkscape-font-specification:'Fira Sans Medium'"
         id="path81" />
      <path
         d="m 303.04885,17.566174 q 3.13905,0 5.51534,1.848224 l -1.46685,2.200268 q -1.99491,-1.261487 -3.9018,-1.261487 -1.11481,0 -1.73088,0.440054 -0.61608,0.410716 -0.61608,1.114802 0,0.528064 0.26404,0.880107 0.26403,0.352043 0.93878,0.674749 0.70408,0.293369 2.05358,0.674748 2.52297,0.674749 3.72579,1.789551 1.23215,1.114803 1.23215,3.109712 0,2.317615 -1.87757,3.637776 -1.87756,1.290823 -4.66456,1.290823 -1.9069,0 -3.49109,-0.586738 -1.55486,-0.586738 -2.699,-1.613529 l 1.87756,-2.112257 q 2.02425,1.525519 4.22452,1.525519 1.26148,0 1.99491,-0.498728 0.76276,-0.498727 0.76276,-1.378834 0,-0.674749 -0.29337,-1.056128 -0.26404,-0.410717 -0.99746,-0.704086 -0.70408,-0.322706 -2.2296,-0.762759 -2.37629,-0.645412 -3.49109,-1.789551 -1.11481,-1.173476 -1.11481,-2.904354 0,-1.290823 0.73343,-2.317615 0.76276,-1.026791 2.11225,-1.613529 1.37884,-0.586738 3.13905,-0.586738 z"
         style="font-style:normal;font-variant:normal;font-weight:500;font-stretch:normal;font-size:29.3369px;font-family:'Fira Sans';-inkscape-font-specification:'Fira Sans Medium'"
         id="path83" />
      <path
         d="m 318.37922,17.566174 q 1.52552,0 2.72833,0.440053 1.23215,0.440054 2.31762,1.378835 l -1.6722,2.258941 q -0.7921,-0.586738 -1.52552,-0.85077 -0.73343,-0.264032 -1.61353,-0.264032 -3.49109,0 -3.49109,5.309979 0,2.698995 0.90944,3.901808 0.90944,1.173476 2.58165,1.173476 0.82143,0 1.49618,-0.264033 0.70408,-0.264032 1.64287,-0.85077 l 1.6722,2.376289 q -2.20027,1.789551 -5.01661,1.789551 -2.22961,0 -3.87247,-0.968117 -1.64287,-0.997455 -2.52298,-2.816343 -0.8801,-1.818888 -0.8801,-4.283187 0,-2.4643 0.8801,-4.341862 0.88011,-1.906898 2.52298,-2.93369 1.64286,-1.056128 3.84313,-1.056128 z"
         style="font-style:normal;font-variant:normal;font-weight:500;font-stretch:normal;font-size:29.3369px;font-family:'Fira Sans';-inkscape-font-specification:'Fira Sans Medium'"
         id="path85" />
      <path
         d="m 334.44163,17.566174 q 2.05358,0 3.22706,1.261486 1.17348,1.261487 1.17348,3.461755 v 11.236033 h -3.75513 V 22.876153 q 0,-1.378835 -0.49872,-1.936236 -0.4694,-0.557401 -1.40818,-0.557401 -0.93878,0 -1.73087,0.616075 -0.7921,0.586738 -1.52552,1.70154 v 10.825317 h -3.75513 V 11.816141 l 3.75513,-0.38138 v 8.419691 q 1.87756,-2.288278 4.51788,-2.288278 z"
         style="font-style:normal;font-variant:normal;font-weight:500;font-stretch:normal;font-size:29.3369px;font-family:'Fira Sans';-inkscape-font-specification:'Fira Sans Medium'"
         id="path87" />
      <path
         d="m 354.65705,29.418282 q 0,0.909444 0.26404,1.349497 0.29336,0.410717 0.90944,0.645412 l -0.7921,2.493636 q -1.32016,-0.117347 -2.17093,-0.645411 -0.82143,-0.528065 -1.26148,-1.61353 -0.7921,1.173476 -1.99491,1.760214 -1.17348,0.557401 -2.64033,0.557401 -2.31761,0 -3.66711,-1.32016 -1.3495,-1.320161 -1.3495,-3.461755 0,-2.522973 1.81889,-3.843134 1.84823,-1.349497 5.25131,-1.349497 h 1.93623 v -0.880107 q 0,-1.496182 -0.70408,-2.08292 -0.67475,-0.616075 -2.20027,-0.616075 -1.70154,0 -4.10717,0.821433 l -0.8801,-2.55231 q 2.90435,-1.114802 5.63268,-1.114802 5.95539,0 5.95539,5.339316 z m -6.68881,1.818887 q 1.9069,0 2.99236,-1.906898 v -3.139048 h -1.55485 q -3.63778,0 -3.63778,2.698994 0,1.114803 0.5574,1.730878 0.5574,0.616074 1.64287,0.616074 z"
         style="font-style:normal;font-variant:normal;font-weight:500;font-stretch:normal;font-size:29.3369px;font-family:'Fira Sans';-inkscape-font-specification:'Fira Sans Medium'"
         id="path89" />
      <path
         d="m 365.50803,14.221767 q -1.1148,0 -1.61353,0.528064 -0.46939,0.498728 -0.46939,1.61353 v 1.642866 h 3.72579 l -0.41072,2.698995 h -3.31507 v 12.820226 h -3.75512 V 20.705222 h -2.52298 v -2.698995 h 2.52298 v -1.70154 q 0,-2.200268 1.40817,-3.549765 1.43751,-1.378834 4.04849,-1.378834 2.05358,0 4.01916,0.909444 l -1.08547,2.522973 q -1.26149,-0.586738 -2.55231,-0.586738 z"
         style="font-style:normal;font-variant:normal;font-weight:500;font-stretch:normal;font-size:29.3369px;font-family:'Fira Sans';-inkscape-font-specification:'Fira Sans Medium'"
         id="path91" />
      <path
         d="m 375.70719,14.221767 q -1.1148,0 -1.61353,0.528064 -0.46939,0.498728 -0.46939,1.61353 v 1.642866 h 3.72579 l -0.41072,2.698995 h -3.31507 v 12.820226 h -3.75512 V 20.705222 h -2.52298 v -2.698995 h 2.52298 v -1.70154 q 0,-2.200268 1.40817,-3.549765 1.4375,-1.378834 4.04849,-1.378834 2.05358,0 4.01915,0.909444 l -1.08546,2.522973 q -1.26149,-0.586738 -2.55231,-0.586738 z"
         style="font-style:normal;font-variant:normal;font-weight:500;font-stretch:normal;font-size:29.3369px;font-family:'Fira Sans';-inkscape-font-specification:'Fira Sans Medium'"
         id="path93" />
      <path
         d="m 392.07397,25.399126 q 0,0.293369 -0.088,1.525519 h -9.73986 q 0.17603,2.258941 1.17348,3.227059 0.99745,0.968118 2.64032,0.968118 1.02679,0 1.93624,-0.322706 0.90944,-0.352043 1.93623,-1.056128 l 1.55486,2.141593 q -2.58165,2.08292 -5.75003,2.08292 -3.54977,0 -5.48601,-2.17093 -1.90689,-2.170931 -1.90689,-5.926054 0,-2.376289 0.82143,-4.253851 0.82143,-1.906899 2.37629,-2.963027 1.55485,-1.085465 3.69645,-1.085465 3.25639,0 5.04594,2.08292 1.78956,2.053583 1.78956,5.750032 z m -3.72579,-1.085465 q 0,-4.077829 -3.0217,-4.077829 -1.37884,0 -2.17093,1.026791 -0.76276,0.997455 -0.90945,3.227059 h 6.10208 z"
         style="font-style:normal;font-variant:normal;font-weight:500;font-stretch:normal;font-size:29.3369px;font-family:'Fira Sans';-inkscape-font-specification:'Fira Sans Medium'"
         id="path95" />
      <path
         d="m 403.71568,17.566174 q 2.08292,0 3.22706,1.261486 1.17347,1.23215 1.17347,3.461755 v 11.236033 h -3.75512 V 22.876153 q 0,-1.378835 -0.49873,-1.936236 -0.46939,-0.557401 -1.40817,-0.557401 -0.96812,0 -1.76021,0.616075 -0.76276,0.586738 -1.49618,1.730877 v 10.79598 h -3.75513 V 18.006227 h 3.2564 l 0.29337,2.024246 q 1.9069,-2.464299 4.72324,-2.464299 z"
         style="font-style:normal;font-variant:normal;font-weight:500;font-stretch:normal;font-size:29.3369px;font-family:'Fira Sans';-inkscape-font-specification:'Fira Sans Medium'"
         id="path97" />
      <path
         d="m 419.06116,25.83918 v -2.992364 h 8.85975 v 2.992364 z"
         style="font-style:normal;font-variant:normal;font-weight:500;font-stretch:normal;font-size:29.3369px;font-family:'Fira Sans';-inkscape-font-specification:'Fira Sans Medium'"
         id="path99" />
      <path
         d="m 460.81629,13.253649 -3.72578,20.271799 h -5.04595 l -3.08037,-16.164633 -3.16839,16.164633 h -4.89926 l -3.66712,-20.271799 h 3.84314 l 2.58165,17.191424 3.31507,-17.191424 h 4.10716 l 3.2564,17.191424 2.81634,-17.191424 z"
         style="font-style:normal;font-variant:normal;font-weight:500;font-stretch:normal;font-size:29.3369px;font-family:'Fira Sans';-inkscape-font-specification:'Fira Sans Medium'"
         id="path101" />
      <path
         d="m 476.01647,25.399126 q 0,0.293369 -0.088,1.525519 h -9.73985 q 0.17602,2.258941 1.17347,3.227059 0.99746,0.968118 2.64033,0.968118 1.02679,0 1.93623,-0.322706 0.90945,-0.352043 1.93624,-1.056128 l 1.55485,2.141593 q -2.58164,2.08292 -5.75003,2.08292 -3.54976,0 -5.486,-2.17093 -1.9069,-2.170931 -1.9069,-5.926054 0,-2.376289 0.82143,-4.253851 0.82144,-1.906899 2.37629,-2.963027 1.55486,-1.085465 3.69645,-1.085465 3.2564,0 5.04595,2.08292 1.78955,2.053583 1.78955,5.750032 z m -3.72579,-1.085465 q 0,-4.077829 -3.0217,-4.077829 -1.37883,0 -2.17093,1.026791 -0.76276,0.997455 -0.90944,3.227059 h 6.10207 z"
         style="font-style:normal;font-variant:normal;font-weight:500;font-stretch:normal;font-size:29.3369px;font-family:'Fira Sans';-inkscape-font-specification:'Fira Sans Medium'"
         id="path103" />
      <path
         d="m 487.04209,17.595511 q 0.85077,0 1.55486,0.205358 l -0.64541,3.637776 q -0.70409,-0.176022 -1.37884,-0.176022 -1.37883,0 -2.17093,0.997455 -0.79209,0.968118 -1.26148,2.992364 v 8.273006 h -3.75513 V 18.006227 h 3.2564 l 0.35204,3.051038 q 0.5574,-1.672203 1.61353,-2.55231 1.05613,-0.909444 2.43496,-0.909444 z"
         style="font-style:normal;font-variant:normal;font-weight:500;font-stretch:normal;font-size:29.3369px;font-family:'Fira Sans';-inkscape-font-specification:'Fira Sans Medium'"
         id="path105" />
      <path
         d="m 499.84858,32.792025 q -0.82143,0.586738 -1.84822,0.880107 -0.99746,0.293369 -2.05358,0.293369 -2.28828,-0.02934 -3.4911,-1.290823 -1.17347,-1.290824 -1.17347,-3.784461 v -8.184995 h -2.43496 v -2.698995 h 2.43496 V 14.57381 l 3.75512,-0.440054 v 3.872471 h 3.60844 l -0.38138,2.698995 h -3.22706 v 8.096985 q 0,1.144139 0.38138,1.642866 0.41072,0.498727 1.26149,0.498727 0.85077,0 1.84822,-0.557401 z"
         style="font-style:normal;font-variant:normal;font-weight:500;font-stretch:normal;font-size:29.3369px;font-family:'Fira Sans';-inkscape-font-specification:'Fira Sans Medium'"
         id="path107" />
      <path
         d="m 514.17734,25.399126 q 0,0.293369 -0.088,1.525519 h -9.73985 q 0.17602,2.258941 1.17348,3.227059 0.99745,0.968118 2.64032,0.968118 1.02679,0 1.93623,-0.322706 0.90945,-0.352043 1.93624,-1.056128 l 1.55486,2.141593 q -2.58165,2.08292 -5.75004,2.08292 -3.54976,0 -5.486,-2.17093 -1.9069,-2.170931 -1.9069,-5.926054 0,-2.376289 0.82144,-4.253851 0.82143,-1.906899 2.37629,-2.963027 1.55485,-1.085465 3.69645,-1.085465 3.25639,0 5.04594,2.08292 1.78955,2.053583 1.78955,5.750032 z m -3.72578,-1.085465 q 0,-4.077829 -3.0217,-4.077829 -1.37884,0 -2.17093,1.026791 -0.76276,0.997455 -0.90945,3.227059 h 6.10208 z"
         style="font-style:normal;font-variant:normal;font-weight:500;font-stretch:normal;font-size:29.3369px;font-family:'Fira Sans';-inkscape-font-specification:'Fira Sans Medium'"
         id="path109" />
      <path
         d="m 537.61249,25.399126 q 0,0.293369 -0.088,1.525519 h -9.73985 q 0.17602,2.258941 1.17348,3.227059 0.99745,0.968118 2.64032,0.968118 1.02679,0 1.93623,-0.322706 0.90945,-0.352043 1.93624,-1.056128 l 1.55486,2.141593 q -2.58165,2.08292 -5.75004,2.08292 -3.54976,0 -5.486,-2.17093 -1.9069,-2.170931 -1.9069,-5.926054 0,-2.376289 0.82144,-4.253851 0.82143,-1.906899 2.37629,-2.963027 1.55485,-1.085465 3.69645,-1.085465 3.25639,0 5.04594,2.08292 1.78955,2.053583 1.78955,5.750032 z m -3.72578,-1.085465 q 0,-4.077829 -3.0217,-4.077829 -1.37884,0 -2.17093,1.026791 -0.76276,0.997455 -0.90945,3.227059 h 6.10208 z"
         style="font-style:normal;font-variant:normal;font-weight:500;font-stretch:normal;font-size:29.3369px;font-family:'Fira Sans';-inkscape-font-specification:'Fira Sans Medium'"
         id="path111" />
      <path
         d="m 548.63813,17.595511 q 0.85077,0 1.55486,0.205358 l -0.64541,3.637776 q -0.70409,-0.176022 -1.37884,-0.176022 -1.37883,0 -2.17093,0.997455 -0.7921,0.968118 -1.26149,2.992364 v 8.273006 H 540.9812 V 18.006227 h 3.2564 l 0.35204,3.051038 q 0.5574,-1.672203 1.61353,-2.55231 1.05613,-0.909444 2.43496,-0.909444 z"
         style="font-style:normal;font-variant:normal;font-weight:500;font-stretch:normal;font-size:29.3369px;font-family:'Fira Sans';-inkscape-font-specification:'Fira Sans Medium'"
         id="path113" />
      <path
         d="m 560.82852,17.566174 q 2.05358,0 3.22706,1.261486 1.17347,1.261487 1.17347,3.461755 v 11.236033 h -3.75512 V 22.876153 q 0,-1.378835 -0.49873,-1.936236 -0.46939,-0.557401 -1.40817,-0.557401 -0.93878,0 -1.73088,0.616075 -0.79209,0.586738 -1.52552,1.70154 v 10.825317 h -3.75512 V 11.816141 l 3.75512,-0.38138 v 8.419691 q 1.87757,-2.288278 4.51789,-2.288278 z"
         style="font-style:normal;font-variant:normal;font-weight:500;font-stretch:normal;font-size:29.3369px;font-family:'Fira Sans';-inkscape-font-specification:'Fira Sans Medium'"
         id="path115" />
      <path
         d="m 581.04394,29.418282 q 0,0.909444 0.26403,1.349497 0.29337,0.410717 0.90945,0.645412 l -0.7921,2.493636 q -1.32016,-0.117347 -2.17093,-0.645411 -0.82143,-0.528065 -1.26149,-1.61353 -0.79209,1.173476 -1.99491,1.760214 -1.17347,0.557401 -2.64032,0.557401 -2.31761,0 -3.66711,-1.32016 -1.3495,-1.320161 -1.3495,-3.461755 0,-2.522973 1.81889,-3.843134 1.84822,-1.349497 5.2513,-1.349497 h 1.93624 v -0.880107 q 0,-1.496182 -0.70409,-2.08292 -0.67474,-0.616075 -2.20026,-0.616075 -1.70154,0 -4.10717,0.821433 l -0.88011,-2.55231 q 2.90436,-1.114802 5.63269,-1.114802 5.95539,0 5.95539,5.339316 z m -6.68881,1.818887 q 1.90689,0 2.99236,-1.906898 v -3.139048 h -1.55486 q -3.63777,0 -3.63777,2.698994 0,1.114803 0.5574,1.730878 0.5574,0.616074 1.64287,0.616074 z"
         style="font-style:normal;font-variant:normal;font-weight:500;font-stretch:normal;font-size:29.3369px;font-family:'Fira Sans';-inkscape-font-specification:'Fira Sans Medium'"
         id="path117" />
      <path
         d="m 588.99747,33.965501 q -1.78956,0 -2.81635,-1.026791 -0.99745,-1.056129 -0.99745,-2.963027 V 11.786804 l 3.75512,-0.410716 v 18.482247 q 0,1.085465 0.88011,1.085465 0.44005,0 0.88011,-0.146684 l 0.79209,2.640321 q -1.17347,0.528064 -2.49363,0.528064 z"
         style="font-style:normal;font-variant:normal;font-weight:500;font-stretch:normal;font-size:29.3369px;font-family:'Fira Sans';-inkscape-font-specification:'Fira Sans Medium'"
         id="path119" />
      <path
         d="m 602.87153,32.792025 q -0.82143,0.586738 -1.84822,0.880107 -0.99746,0.293369 -2.05358,0.293369 -2.28828,-0.02934 -3.4911,-1.290823 -1.17347,-1.290824 -1.17347,-3.784461 v -8.184995 h -2.43496 v -2.698995 h 2.43496 V 14.57381 l 3.75512,-0.440054 v 3.872471 h 3.60844 l -0.38138,2.698995 h -3.22706 v 8.096985 q 0,1.144139 0.38138,1.642866 0.41072,0.498727 1.26149,0.498727 0.85077,0 1.84822,-0.557401 z"
         style="font-style:normal;font-variant:normal;font-weight:500;font-stretch:normal;font-size:29.3369px;font-family:'Fira Sans';-inkscape-font-specification:'Fira Sans Medium'"
         id="path121" />
      <path
         d="m 617.20029,25.399126 q 0,0.293369 -0.088,1.525519 h -9.73985 q 0.17602,2.258941 1.17348,3.227059 0.99745,0.968118 2.64032,0.968118 1.02679,0 1.93623,-0.322706 0.90945,-0.352043 1.93624,-1.056128 l 1.55486,2.141593 q -2.58165,2.08292 -5.75004,2.08292 -3.54976,0 -5.486,-2.17093 -1.9069,-2.170931 -1.9069,-5.926054 0,-2.376289 0.82144,-4.253851 0.82143,-1.906899 2.37629,-2.963027 1.55485,-1.085465 3.69645,-1.085465 3.25639,0 5.04594,2.08292 1.78955,2.053583 1.78955,5.750032 z m -3.72578,-1.085465 q 0,-4.077829 -3.0217,-4.077829 -1.37884,0 -2.17093,1.026791 -0.76276,0.997455 -0.90945,3.227059 h 6.10208 z"
         style="font-style:normal;font-variant:normal;font-weight:500;font-stretch:normal;font-size:29.3369px;font-family:'Fira Sans';-inkscape-font-specification:'Fira Sans Medium'"
         id="path123" />
      <path
         d="m 628.84201,17.566174 q 2.08292,0 3.22706,1.261486 1.17347,1.23215 1.17347,3.461755 v 11.236033 h -3.75512 V 22.876153 q 0,-1.378835 -0.49873,-1.936236 -0.46939,-0.557401 -1.40817,-0.557401 -0.96812,0 -1.76021,0.616075 -0.76276,0.586738 -1.49619,1.730877 v 10.79598 H 620.569 V 18.006227 h 3.2564 l 0.29336,2.024246 q 1.9069,-2.464299 4.72325,-2.464299 z"
         style="font-style:normal;font-variant:normal;font-weight:500;font-stretch:normal;font-size:29.3369px;font-family:'Fira Sans';-inkscape-font-specification:'Fira Sans Medium'"
         id="path125" />
    </g>
  </g>
</svg>
